<svg xmlns="http://www.w3.org/2000/svg" width="146" height="102" viewBox="0 0 146 102" fill="none" class="custom-logo replaced-svg">
<path d="M115.233 48.1463L112.596 44.2806H111.45L111.91 46.1543L101.942 40.0643L101.826 39.3537L99.3057 33.4959L86.716 18.0993L85.9083 18.1585L86.6639 20.5272L84.9063 19.2789L58.5544 0H57.2564L56.7234 10.7776L39.7659 2.26448L35.1824 1.25068L34.7229 1.64151L42.6675 20.5391V21.2497L19.5229 23.1944L15.6666 25.2267V25.6555L41.3316 37.8377L38.8113 38.4228L26.2074 44.3967L24.9472 46.7417L41.3316 48.3808L33.0814 57.9883L33.7683 58.6989L60.9231 56.2284L65.2768 62.7897L75.3604 63.3748H77.767L86.1309 66.4209L89.2244 68.0601L91.9745 69.8176L91.2852 70.6372L90.8281 72.2787H91.9745C91.9745 72.2787 103.432 66.5394 104.806 66.7715L104.233 68.9981L104.806 69.2349L109.276 65.9543C109.276 65.9543 112.253 57.4032 113.513 56.2307L115.92 52.2489L115.233 48.1463ZM93.879 42.7338C93.879 42.7338 83.343 41.0757 82.1847 38.0296C82.1847 38.0296 80.9292 35.9546 83.369 33.3253L93.8861 42.6154L93.879 42.7338Z" fill="white"></path>
<path d="M0 81.0645H7.8949V83.3645H2.68375V84.8639H7.40458V87.0099H2.69322V88.5661H7.96596V90.8804H0V81.0645Z" fill="white"></path>
<path d="M10.2091 81.0645H12.9308V88.4975H17.6847V90.8804H10.2091V81.0645Z" fill="white"></path>
<path d="M19.7053 81.0645H27.6002V83.3645H22.3891V84.8639H27.1004V87.0099H22.3985V88.5661H27.6713V90.8804H19.7053V81.0645Z" fill="white"></path>
<path d="M29.1351 81.0645H32.1623L34.3937 87.2776L36.6368 81.0645H39.6096L35.6372 90.9585H33.1122L29.1351 81.0645Z" fill="white"></path>
<path d="M41.4146 81.0645H49.3095V83.3645H44.0983V84.8639H48.8191V87.0099H44.1078V88.5661H49.3805V90.8804H41.4146V81.0645Z" fill="white"></path>
<path d="M51.6378 81.0645H54.1747L58.2133 86.2519V81.0645H60.9066V90.8804H58.5379L54.3287 85.4963V90.8804H51.6378V81.0645Z" fill="white"></path>
<path d="M68.5243 81.0645H72.3142C75.8057 81.0645 77.838 83.0707 77.838 85.9156V85.944C77.838 88.7864 75.7773 90.8804 72.2574 90.8804H68.5243V81.0645ZM71.2459 83.4616V88.469H72.3545C73.9936 88.469 75.0738 87.5713 75.0738 85.9866V85.9582C75.0738 84.3735 73.9936 83.4616 72.3545 83.4616H71.2459Z" fill="white"></path>
<path d="M80.1096 81.0645H84.7523C86.2659 81.0645 87.2892 81.4577 87.9477 82.1162C88.2397 82.4185 88.4674 82.777 88.6168 83.1699C88.7662 83.5628 88.8343 83.982 88.817 84.402V84.4304C88.8444 85.0839 88.6638 85.7293 88.3012 86.2737C87.9385 86.8181 87.4125 87.2335 86.7988 87.46L89.1415 90.8804H86.0124L84.0369 87.9076H82.8313V90.8804H80.1096V81.0645ZM84.6386 85.7758C85.5505 85.7758 86.0977 85.3281 86.0977 84.6128V84.5843C86.0977 83.7979 85.5221 83.4 84.6244 83.4H82.8313V85.7687L84.6386 85.7758Z" fill="white"></path>
<path d="M94.2461 80.9932H96.8801L101.061 90.8802H98.1308L97.4201 89.1131H93.6302L92.9196 90.8802H90.0771L94.2461 80.9932ZM96.6432 86.9955L95.5489 84.2193L94.4403 86.9955H96.6432Z" fill="white"></path>
<path d="M101.89 86.0005V85.984C101.89 83.1226 104.135 80.8794 107.163 80.8794C108.901 80.8794 110.095 81.3981 111.147 82.3006L109.548 84.2358C108.837 83.6342 108.172 83.3097 107.179 83.3097C105.777 83.3097 104.668 84.494 104.668 85.9887V86.0171C104.668 87.616 105.777 88.7506 107.333 88.7506C107.886 88.7786 108.434 88.6373 108.904 88.3456V87.1612H106.983V85.1691H111.483V89.5725C110.293 90.5793 108.778 91.1219 107.219 91.1004C104.147 91.0767 101.89 88.9875 101.89 86.0005Z" fill="white"></path>
<path d="M113.518 86.0005V85.984C113.518 83.1652 115.79 80.8794 118.819 80.8794C121.849 80.8794 124.092 83.151 124.092 85.9555V85.984C124.092 88.8027 121.82 91.0885 118.791 91.0885C115.761 91.0885 113.518 88.8051 113.518 86.0005ZM121.299 86.0005V85.984C121.299 84.5627 120.29 83.3334 118.791 83.3334C117.291 83.3334 116.304 84.5272 116.304 85.9437V85.984C116.304 87.3862 117.327 88.6345 118.829 88.6345C120.33 88.6345 121.299 87.417 121.299 86.0005Z" fill="white"></path>
<path d="M126.335 81.0645H128.874L132.901 86.2519V81.0645H135.594V90.8804H133.226L129.019 85.4963V90.8804H126.335V81.0645Z" fill="white"></path>
<path d="M137.444 89.4235L138.958 87.6138C139.851 88.3631 140.976 88.7814 142.141 88.7981C142.885 88.7981 143.278 88.5613 143.278 88.1254V88.097C143.278 87.6754 142.954 87.4811 141.62 87.1495C139.545 86.6758 137.918 86.0955 137.918 84.0702V84.0418C137.918 82.206 139.363 80.9009 141.708 80.9009C143.39 80.9009 144.681 81.3486 145.735 82.206L144.373 84.1271C143.583 83.5197 142.621 83.1803 141.625 83.1583C140.966 83.1583 140.644 83.4117 140.644 83.7907V83.8168C140.644 84.2526 140.981 84.4776 142.355 84.7642C144.598 85.2546 146 85.9841 146 87.8222V87.8483C146 89.8546 144.415 91.046 142.032 91.046C140.357 91.081 138.725 90.5042 137.444 89.4235Z" fill="white"></path>
<path d="M13.3879 95.395H17.4005V95.7811H13.8072V97.9982H17.0381V98.3843H13.8072V100.649H17.4408V101.037H13.3879V95.395Z" fill="white"></path>
<path d="M22.5027 95.395H22.8983L26.7924 100.303V95.395H27.1951V101.037H26.8801L22.9006 96.0227V101.037H22.5027V95.395Z" fill="white"></path>
<path d="M34.1094 95.7811H32.141V95.395H36.4781V95.7811H34.5121V101.037H34.1094V95.7811Z" fill="white"></path>
<path d="M41.424 95.395H45.4508V95.7811H41.8432V97.9982H45.0765V98.3843H41.8432V100.649H45.4792V101.037H41.424V95.395Z" fill="white"></path>
<path d="M50.534 95.3949H52.9027C53.1907 95.378 53.4793 95.4182 53.7516 95.5134C54.024 95.6085 54.2749 95.7566 54.4897 95.9491C54.7653 96.2286 54.9187 96.606 54.9161 96.9985V97.0151C54.9161 97.9625 54.2055 98.4979 53.258 98.6258L55.1198 101.037H54.5869L52.789 98.6992H50.9438V101.037H50.5245L50.534 95.3949ZM52.8553 98.3202C53.8028 98.3202 54.4992 97.8465 54.4992 97.0293V97.0151C54.4992 96.2476 53.9118 95.781 52.879 95.781H50.9533V98.3202H52.8553Z" fill="white"></path>
<path d="M61.5532 95.7811H59.5872V95.395H63.9408V95.7811H61.9724V101.037H61.5532V95.7811Z" fill="white"></path>
<path d="M70.3506 95.3545H70.7533L73.3802 101.039H72.9207L72.2101 99.4595H68.8654L68.1548 101.039H67.719L70.3506 95.3545ZM72.0087 99.0781L70.5235 95.814L69.0336 99.0781H72.0087Z" fill="white"></path>
<path d="M78.3284 95.395H78.7476V101.037H78.3284V95.395Z" fill="white"></path>
<path d="M84.1909 95.395H84.5841L88.4783 100.303V95.395H88.881V101.037H88.5683L84.5936 96.0227V101.037H84.1909V95.395Z" fill="white"></path>
<path d="M94.2745 95.395H94.6677L96.9346 98.7302L99.1991 95.395H99.5947V101.037H99.1754V96.1364L96.9417 99.3839H96.9085L94.6772 96.1364V101.037H94.2745V95.395Z" fill="white"></path>
<path d="M104.972 95.395H108.987V95.7811H105.391V97.9982H108.624V98.3843H105.391V100.649H109.027V101.037H104.972V95.395Z" fill="white"></path>
<path d="M114.082 95.395H114.477L118.369 100.303V95.395H118.774V101.037H118.459L114.484 96.0227V101.037H114.082V95.395Z" fill="white"></path>
<path d="M125.681 95.7811H123.715V95.395H128.069V95.7811H126.1V101.037H125.681V95.7811Z" fill="white"></path>
</svg>